<svg width="27" height="27" viewBox="0 0 27 27" fill="none" xmlns="http://www.w3.org/2000/svg">
<g id="Group 3">
<path id="Vector" d="M13.2279 2.94561C16.7602 2.94561 17.1785 2.9611 18.5676 3.02307C19.8587 3.07987 20.5558 3.29677 21.0206 3.47751C21.6351 3.71506 22.0792 4.00425 22.5389 4.46386C23.0036 4.92863 23.2877 5.36758 23.5252 5.98212C23.706 6.44689 23.9228 7.14921 23.9797 8.43508C24.0416 9.82939 24.0571 10.2477 24.0571 13.7748C24.0571 17.3071 24.0416 17.7254 23.9797 19.1145C23.9228 20.4055 23.706 21.1027 23.5252 21.5675C23.2877 22.182 22.9985 22.6261 22.5389 23.0857C22.0741 23.5505 21.6351 23.8345 21.0206 24.0721C20.5558 24.2528 19.8535 24.4697 18.5676 24.5265C17.1733 24.5885 16.755 24.604 13.2279 24.604C9.69566 24.604 9.27737 24.5885 7.88822 24.5265C6.59718 24.4697 5.90003 24.2528 5.43525 24.0721C4.82072 23.8345 4.37661 23.5453 3.917 23.0857C3.45223 22.6209 3.1682 22.182 2.93065 21.5675C2.74991 21.1027 2.53301 20.4004 2.47621 19.1145C2.41424 17.7202 2.39874 17.3019 2.39874 13.7748C2.39874 10.2425 2.41424 9.82423 2.47621 8.43508C2.53301 7.14404 2.74991 6.44689 2.93065 5.98212C3.1682 5.36758 3.45739 4.92347 3.917 4.46386C4.38177 3.99909 4.82072 3.71506 5.43525 3.47751C5.90003 3.29677 6.60235 3.07987 7.88822 3.02307C9.27737 2.9611 9.69566 2.94561 13.2279 2.94561ZM13.2279 0.564941C9.63886 0.564941 9.18958 0.580434 7.77977 0.642403C6.37513 0.704373 5.40943 0.931595 4.57284 1.25693C3.70011 1.59777 2.96163 2.04705 2.22833 2.78552C1.48986 3.51882 1.04058 4.2573 0.699745 5.12487C0.374405 5.96662 0.147183 6.92715 0.0852134 8.33179C0.0232439 9.74677 0.00775146 10.196 0.00775146 13.7851C0.00775146 17.3742 0.0232439 17.8235 0.0852134 19.2333C0.147183 20.6379 0.374405 21.6036 0.699745 22.4402C1.04058 23.3129 1.48986 24.0514 2.22833 24.7847C2.96163 25.518 3.70011 25.9725 4.56768 26.3081C5.40943 26.6335 6.36996 26.8607 7.77461 26.9227C9.18441 26.9846 9.63369 27.0001 13.2228 27.0001C16.8118 27.0001 17.2611 26.9846 18.6709 26.9227C20.0756 26.8607 21.0413 26.6335 21.8778 26.3081C22.7454 25.9725 23.4839 25.518 24.2172 24.7847C24.9505 24.0514 25.4049 23.3129 25.7406 22.4454C26.066 21.6036 26.2932 20.6431 26.3552 19.2384C26.4171 17.8286 26.4326 17.3794 26.4326 13.7903C26.4326 10.2012 26.4171 9.75193 26.3552 8.34212C26.2932 6.93748 26.066 5.97179 25.7406 5.1352C25.4153 4.2573 24.966 3.51882 24.2275 2.78552C23.4942 2.05221 22.7558 1.59777 21.8882 1.2621C21.0464 0.936759 20.0859 0.709537 18.6813 0.647568C17.2663 0.580434 16.817 0.564941 13.2279 0.564941Z" fill="white"/>
<path id="Vector_2" d="M13.2283 6.99402C9.47917 6.99402 6.4375 10.0357 6.4375 13.7849C6.4375 17.534 9.47917 20.5757 13.2283 20.5757C16.9775 20.5757 20.0192 17.534 20.0192 13.7849C20.0192 10.0357 16.9775 6.99402 13.2283 6.99402ZM13.2283 18.1899C10.796 18.1899 8.82333 16.2172 8.82333 13.7849C8.82333 11.3525 10.796 9.37985 13.2283 9.37985C15.6606 9.37985 17.6333 11.3525 17.6333 13.7849C17.6333 16.2172 15.6606 18.1899 13.2283 18.1899Z" fill="white"/>
<path id="Vector_3" d="M21.8729 6.72565C21.8729 7.60355 21.1603 8.31104 20.2875 8.31104C19.4096 8.31104 18.7021 7.59839 18.7021 6.72565C18.7021 5.84775 19.4148 5.14026 20.2875 5.14026C21.1603 5.14026 21.8729 5.85291 21.8729 6.72565Z" fill="white"/>
</g>
</svg>
