<svg width="27" height="27" viewBox="0 0 27 27" fill="none" xmlns="http://www.w3.org/2000/svg">
<path id="Subtract" fill-rule="evenodd" clip-rule="evenodd" d="M26.4403 13.6811C26.4403 20.9824 20.5214 26.9013 13.2201 26.9013C5.91881 26.9013 -6.10352e-05 20.9824 -6.10352e-05 13.6811C-6.10352e-05 6.37981 5.91881 0.460938 13.2201 0.460938C20.5214 0.460938 26.4403 6.37981 26.4403 13.6811ZM13.6931 10.221C12.4073 10.7559 9.83739 11.8628 5.98344 13.5419C5.35761 13.7908 5.02978 14.0343 4.99994 14.2723C4.9495 14.6746 5.45333 14.8331 6.13941 15.0488C6.23274 15.0782 6.32943 15.1086 6.42857 15.1408C7.10356 15.3602 8.01156 15.6169 8.48359 15.6271C8.91176 15.6363 9.38965 15.4598 9.91726 15.0975C13.5181 12.6668 15.3769 11.4383 15.4936 11.4118C15.5759 11.3931 15.69 11.3696 15.7673 11.4383C15.8446 11.507 15.837 11.6371 15.8288 11.672C15.7789 11.8848 13.8012 13.7235 12.7777 14.675C12.4587 14.9716 12.2324 15.182 12.1861 15.23C12.0825 15.3377 11.9768 15.4395 11.8753 15.5374C11.2482 16.1419 10.778 16.5952 11.9014 17.3355C12.4412 17.6913 12.8732 17.9855 13.3042 18.279C13.7748 18.5995 14.2443 18.9192 14.8517 19.3173C15.0064 19.4188 15.1542 19.5241 15.2982 19.6267C15.8459 20.0172 16.338 20.368 16.9459 20.3121C17.2992 20.2796 17.6641 19.9474 17.8494 18.9567C18.2874 16.6154 19.1482 11.5425 19.3472 9.4521C19.3646 9.26896 19.3427 9.03456 19.3251 8.93167C19.3075 8.82878 19.2707 8.68218 19.1369 8.57365C18.9785 8.44513 18.734 8.41802 18.6246 8.41995C18.1274 8.42871 17.3645 8.69397 13.6931 10.221Z" fill="white"/>
</svg>
